<?xml version="1.0" encoding="utf-8"?>
<!-- Generator: Adobe Illustrator 19.0.0, SVG Export Plug-In . SVG Version: 6.00 Build 0)  -->
<svg version="1.1" id="Layer_1" xmlns="http://www.w3.org/2000/svg" xmlns:xlink="http://www.w3.org/1999/xlink" x="0px" y="0px"
	 viewBox="123 -184.1 504 541" style="enable-background:new 123 -184.1 504 541;" xml:space="preserve">
<style type="text/css">
	.st0{fill:#3B4951;}
	.st1{fill:#FFFFFF;}
</style>
<g>
	<g id="bg">
		<path class="st0" d="M374.8,343.8c-83.2-26.5-154.5-79.5-204.1-148.9C147.4,162.2,135,123,135,82.9V-92.3
			c66.8-50.1,149.8-79.8,239.8-79.8s173,29.7,239.8,79.8V82.9c0,40.1-12.4,79.3-35.7,111.9C529.2,264.4,457.9,317.3,374.8,343.8z"/>
	</g>
	<g id="letters">
		<path class="st1" d="M370.8,310c-21.3-7.7-41.9-17.5-61.5-29v-24.4c5.5,3.2,11.1,6.3,16.6,9.1l2.9,1.5v-381.4l-2.2,0.3
			c-5.7,0.7-11.5,1.6-17.3,2.6v-21.6c20.1-3.6,40.8-5.5,61.5-5.7v21.7c-5.8,0.1-11.9,0.3-18.1,0.6l-1.9,0.1v393.7l1.2,0.5
			c6,2.5,12.3,5,18.8,7.3V310z"/>
		<path class="st1" d="M378.8-138.7c21,0.2,42,2.2,62.5,5.9v24.1c-7.5-1.3-15-2.5-22.3-3.3c-5.9-0.7-12-1.3-18-1.7l-2.1-0.1V32.6
			h22.5L418.1,53h-19.2v226.6l2.8-1.2c3.5-1.5,7.1-3.2,10.8-4.9c9.7-4.6,19.4-9.8,28.9-15.3v22.2c-19.8,11.8-40.8,21.8-62.5,29.6
			L378.8-138.7L378.8-138.7z"/>
		<path class="st1" d="M301.3,276.1c-7.3-4.6-14.5-9.5-21.5-14.5v-388c7.1-1.9,14.4-3.6,21.5-5V276.1z"/>
		<path class="st1" d="M449.2-131.2c6.7,1.4,13.2,2.9,19.5,4.5v364l4.1-3c13.2-9.7,26-20.4,37.9-31.8v24.4
			c-12.6,12.3-26.1,23.8-40.2,34.2l-0.9,0.7c-6.5,4.7-13.3,9.3-20.3,13.8v-406.8H449.2z"/>
		<path class="st1" d="M257.9,244.3c-6.9-5.9-13.6-12.1-20.1-18.4v-338.4c6.7-2.7,13.4-5.2,20.1-7.4V32.5h17.3l-3.3,20.4h-14V244.3z
			"/>
		<path class="st1" d="M518.7-109.4c22.3,9.5,43.7,21.3,63.9,35.1V84.5c0,33.8-10.3,66.1-29.7,93.3c-10.3,14.5-21.8,28.3-34.1,41.1
			L518.7-109.4L518.7-109.4z M538.8,159.7l3.7-6.6c11.8-20.7,18-44.4,18-68.6v-147l-0.9-0.6c-5.8-3.7-11.8-7.3-17.8-10.6l-3-1.7
			L538.8,159.7L538.8,159.7z"/>
		<path class="st1" d="M229.9,217.5c-12-12.6-23.2-26.1-33.1-40.1c-19.5-27.2-29.8-59.5-29.8-93.3V70.8l22,9.4v3.9
			c0,24.4,6.3,48.2,18.2,69l3.7,6.5v-102L167,38.8V-74.7c19.8-13.6,40.9-25.3,62.9-34.7V10.7L211,2.6v-78.4l-3,1.6
			c-6,3.3-12.1,6.9-18,10.7l-0.9,0.6v88.1l19.2,8.2l21.7,9.3v174.8H229.9z"/>
	</g>
</g>
</svg>
