<?xml version="1.0" standalone="no"?>
<!DOCTYPE svg PUBLIC "-//W3C//DTD SVG 20010904//EN"
 "http://www.w3.org/TR/2001/REC-SVG-20010904/DTD/svg10.dtd">
<svg version="1.0" xmlns="http://www.w3.org/2000/svg"
 width="4000.000000pt" height="4000.000000pt" viewBox="0 0 4000.000000 4000.000000"
 preserveAspectRatio="xMidYMid meet">
<metadata>
Created by potrace 1.14, written by Peter Selinger 2001-2017
</metadata>
<g transform="translate(0.000000,4000.000000) scale(0.100000,-0.100000)"
fill="#000000" stroke="none">
<path d="M19328 39995 c-2 -1 -115 -6 -253 -10 -137 -3 -284 -8 -325 -10 -208
-8 -389 -17 -425 -20 -22 -2 -105 -6 -185 -10 -80 -3 -158 -8 -175 -10 -16 -2
-73 -7 -125 -10 -52 -3 -117 -8 -145 -10 -27 -2 -90 -6 -140 -9 -49 -3 -110
-8 -135 -11 -25 -3 -74 -7 -110 -10 -73 -6 -261 -23 -330 -30 -25 -3 -72 -7
-105 -10 -33 -3 -80 -8 -105 -11 -50 -5 -95 -10 -185 -19 -33 -4 -71 -8 -85
-10 -14 -2 -52 -7 -85 -10 -90 -9 -156 -16 -174 -20 -9 -1 -38 -5 -66 -9 -27
-3 -72 -8 -100 -12 -27 -3 -61 -7 -75 -9 -28 -3 -111 -14 -150 -20 -38 -5
-122 -17 -145 -20 -45 -4 -141 -18 -160 -22 -11 -2 -36 -6 -55 -8 -20 -2 -80
-11 -135 -19 -208 -32 -227 -35 -300 -47 -33 -6 -71 -12 -85 -14 -34 -5 -421
-71 -550 -95 -58 -10 -145 -26 -195 -35 -49 -8 -122 -22 -162 -30 -39 -8 -89
-18 -110 -21 -21 -3 -41 -8 -44 -10 -4 -2 -24 -6 -45 -9 -22 -4 -47 -8 -56
-11 -10 -3 -30 -7 -45 -10 -32 -5 -232 -47 -338 -70 -38 -9 -81 -18 -95 -20
-19 -4 -498 -114 -560 -129 -8 -2 -62 -14 -120 -28 -118 -28 -554 -140 -730
-187 -117 -32 -135 -36 -170 -45 -11 -3 -28 -7 -37 -9 -26 -7 -297 -84 -378
-108 -261 -76 -352 -104 -610 -185 -66 -20 -122 -38 -125 -38 -3 -1 -32 -10
-65 -20 -33 -11 -62 -19 -65 -20 -3 0 -18 -5 -35 -12 -16 -6 -109 -37 -205
-68 -96 -31 -184 -60 -195 -65 -20 -8 -171 -60 -190 -65 -5 -1 -17 -5 -25 -8
-8 -4 -67 -25 -130 -46 -63 -22 -160 -56 -215 -76 -55 -20 -136 -50 -180 -65
-218 -79 -727 -274 -865 -333 -14 -6 -27 -11 -30 -12 -8 -3 -38 -15 -240 -97
-216 -88 -208 -85 -303 -127 -38 -17 -72 -31 -77 -31 -5 0 -21 -7 -37 -15 -15
-8 -50 -24 -78 -36 -92 -38 -249 -107 -363 -160 -46 -22 -85 -39 -87 -39 -2 0
-36 -15 -77 -34 -40 -18 -99 -45 -130 -60 -100 -45 -249 -115 -503 -236 -146
-70 -658 -326 -815 -408 -182 -94 -309 -161 -360 -190 -25 -13 -76 -41 -115
-62 -129 -69 -189 -102 -365 -200 -186 -104 -276 -154 -300 -170 -8 -5 -33
-19 -55 -31 -66 -35 -413 -242 -673 -400 -134 -82 -248 -149 -253 -149 -5 0
-9 -3 -9 -7 0 -5 -23 -21 -51 -38 -59 -35 -69 -41 -129 -79 -513 -327 -1014
-664 -1425 -958 -22 -16 -51 -36 -65 -46 -14 -9 -31 -22 -38 -29 -7 -7 -17
-13 -21 -13 -4 0 -16 -8 -27 -18 -10 -10 -41 -33 -69 -52 -27 -19 -54 -38 -60
-43 -37 -28 -209 -155 -230 -170 l-25 -18 3 -7122 c2 -3917 6 -7149 9 -7182 3
-33 9 -116 12 -185 4 -69 9 -145 11 -170 2 -25 7 -85 10 -135 4 -49 8 -103 10
-120 1 -16 6 -64 9 -105 4 -41 9 -91 11 -110 2 -19 6 -66 10 -105 3 -38 8 -81
10 -95 9 -49 14 -86 20 -155 4 -38 8 -72 10 -75 1 -3 6 -36 10 -73 3 -37 8
-76 10 -85 3 -21 16 -99 20 -132 2 -14 7 -45 11 -70 4 -25 8 -54 9 -65 5 -33
69 -404 79 -450 2 -11 16 -80 30 -153 80 -408 236 -1032 333 -1332 8 -25 17
-53 19 -63 2 -9 6 -25 8 -35 20 -84 248 -746 321 -932 92 -236 153 -387 177
-445 17 -38 36 -83 43 -100 224 -530 510 -1100 823 -1640 57 -99 114 -196 126
-215 13 -19 53 -84 91 -145 147 -237 322 -501 477 -720 90 -128 69 -99 245
-338 76 -104 145 -199 153 -211 8 -12 71 -96 139 -186 140 -186 131 -173 169
-220 15 -19 66 -84 112 -145 46 -60 90 -117 97 -125 6 -8 69 -87 139 -175 71
-88 133 -165 139 -171 5 -6 21 -26 35 -44 22 -30 65 -82 95 -116 6 -7 26 -31
45 -55 45 -56 405 -484 440 -524 15 -16 63 -70 106 -120 43 -49 81 -92 84 -95
3 -3 18 -21 34 -40 16 -19 49 -58 75 -86 25 -27 78 -86 116 -129 89 -100 92
-103 200 -220 50 -54 103 -112 118 -129 402 -437 1130 -1170 1568 -1578 20
-18 82 -76 138 -128 57 -52 118 -108 135 -125 18 -16 68 -62 112 -101 43 -40
91 -83 105 -95 14 -13 56 -51 93 -84 37 -33 78 -69 90 -80 12 -11 51 -45 86
-75 34 -30 72 -63 84 -73 12 -11 45 -40 75 -65 29 -26 63 -55 75 -65 11 -10
41 -36 66 -57 25 -21 55 -47 66 -57 105 -89 433 -363 524 -436 8 -7 37 -30 65
-52 27 -22 59 -48 70 -57 20 -17 160 -127 231 -183 21 -16 55 -43 75 -60 20
-16 52 -41 70 -55 241 -185 311 -238 335 -257 16 -12 70 -52 119 -90 50 -37
100 -75 111 -83 22 -15 378 -275 424 -310 14 -10 86 -61 160 -114 74 -52 153
-107 175 -123 149 -106 713 -485 935 -628 41 -26 104 -67 140 -90 104 -67 510
-319 565 -350 28 -16 52 -32 55 -35 3 -4 12 -9 20 -13 8 -4 32 -17 52 -29 46
-29 267 -160 373 -222 44 -26 87 -51 95 -56 46 -28 338 -194 355 -202 11 -5
29 -14 40 -21 53 -32 393 -218 575 -315 47 -24 114 -61 150 -80 141 -76 878
-444 1105 -551 493 -233 1085 -495 1528 -676 103 -41 199 -81 214 -87 16 -6
30 -12 33 -13 3 0 97 -37 210 -82 113 -45 329 -127 480 -183 151 -56 284 -106
295 -110 69 -30 899 -312 998 -340 l67 -19 328 110 c180 61 359 121 397 134
196 67 618 221 805 293 413 161 529 206 555 217 17 8 89 37 160 66 72 28 155
63 185 77 30 13 61 25 68 25 6 0 12 4 12 9 0 4 6 8 13 8 11 0 373 152 452 190
50 23 177 80 180 80 2 0 32 13 67 29 35 16 86 39 113 51 28 13 82 37 120 55
39 18 111 52 160 74 50 23 135 63 190 89 142 67 967 479 1110 555 208 109 319
169 360 192 22 12 66 36 98 54 31 17 83 45 115 62 68 38 77 43 357 202 122 68
251 143 288 166 37 22 69 41 71 41 4 0 457 271 549 329 32 20 77 48 100 62
190 118 232 145 235 152 2 4 8 7 13 7 5 0 43 22 83 49 41 27 78 50 82 52 47
20 883 585 1157 781 49 35 98 70 111 78 55 37 455 329 511 373 5 4 101 76 211
160 203 153 352 268 383 293 9 7 77 61 151 120 74 58 149 117 165 131 17 13
45 36 64 51 69 55 227 184 251 205 14 12 63 54 110 92 47 38 87 72 90 75 3 3
17 15 32 26 15 12 55 46 90 76 35 30 131 113 213 184 83 70 155 133 161 139
10 9 119 106 168 148 47 42 163 145 210 189 28 26 61 55 72 65 12 10 65 59
119 108 638 585 1395 1346 1950 1959 44 49 91 101 105 116 28 31 38 41 210
236 69 77 136 154 150 170 82 94 391 457 425 499 22 26 56 67 75 90 19 23 51
61 70 85 19 24 49 60 66 80 17 19 57 69 90 110 68 86 83 105 104 130 8 9 26
32 40 50 14 18 32 40 40 50 8 10 26 32 40 50 14 18 77 99 140 179 96 123 477
626 532 702 9 13 46 65 83 114 66 90 237 330 265 371 8 12 56 82 105 156 50
73 92 135 95 138 3 3 10 13 15 22 6 9 55 87 110 173 55 85 105 163 110 172 6
9 29 48 53 85 23 38 42 70 42 72 0 1 25 43 55 92 30 49 58 96 62 104 4 8 26
48 50 88 24 41 43 75 43 77 0 1 24 45 54 97 165 292 411 783 556 1113 34 77
70 158 80 180 10 22 30 69 45 105 15 36 33 79 40 95 7 17 40 98 73 180 32 83
63 159 67 170 4 11 9 25 11 30 1 6 17 46 34 90 104 264 283 807 385 1170 14
50 32 113 40 140 14 50 63 236 70 265 1 8 8 35 15 60 7 25 14 55 16 66 2 12
19 86 38 165 34 139 55 236 96 439 24 120 57 294 64 340 3 19 8 46 10 60 5 23
42 251 51 310 2 14 7 48 11 75 3 28 8 57 9 66 2 9 6 40 10 70 3 30 10 79 15
109 5 30 12 84 15 120 3 36 7 76 10 90 4 25 10 75 20 180 3 30 8 71 10 90 2
19 7 69 10 110 3 41 8 95 10 120 7 79 25 342 30 450 2 41 7 161 11 265 4 105
7 3327 8 7162 l1 6972 -135 97 c-74 54 -137 101 -140 104 -3 3 -36 28 -75 55
-38 27 -72 51 -75 54 -3 3 -12 11 -22 16 -9 6 -92 64 -185 129 -92 66 -188
133 -213 150 -25 17 -47 33 -50 37 -3 3 -22 15 -43 28 -21 13 -43 28 -50 34
-7 7 -20 17 -29 22 -9 6 -148 98 -310 206 -317 212 -510 339 -548 359 -13 7
-29 17 -34 22 -31 26 -726 451 -931 570 -44 25 -132 76 -195 113 -113 66 -158
92 -242 138 -24 13 -96 54 -160 90 -64 37 -120 67 -124 67 -3 0 -18 8 -32 18
-15 11 -72 43 -127 72 -55 29 -113 60 -130 70 -206 119 -1173 605 -1530 770
-38 18 -101 47 -140 65 -461 214 -1242 550 -1595 685 -52 20 -136 53 -165 65
-11 5 -22 9 -25 10 -3 1 -12 5 -20 8 -8 3 -33 13 -55 21 -22 8 -80 30 -130 49
-579 222 -1476 528 -2020 690 -106 32 -251 75 -270 80 -11 3 -58 17 -105 30
-47 14 -125 37 -175 51 -49 14 -112 33 -140 41 -27 8 -86 24 -130 35 -124 33
-184 49 -263 71 -40 11 -81 22 -90 24 -9 1 -37 8 -62 15 -25 7 -52 14 -60 16
-8 2 -85 21 -171 43 -86 22 -167 42 -180 45 -32 7 -252 59 -364 86 -49 12
-101 24 -115 26 -14 3 -41 9 -60 14 -19 5 -46 11 -60 14 -14 2 -79 16 -145 31
-121 27 -479 102 -525 110 -14 3 -34 7 -45 9 -23 4 -279 54 -310 60 -11 2 -69
13 -130 24 -98 18 -131 24 -213 38 -12 2 -49 9 -82 14 -67 12 -86 16 -168 30
-87 14 -113 19 -157 25 -22 3 -78 12 -125 20 -83 14 -122 20 -197 30 -21 3
-49 8 -63 10 -26 5 -54 9 -131 19 -25 4 -57 9 -70 11 -27 4 -149 21 -219 30
-25 4 -56 8 -70 10 -14 2 -83 11 -155 20 -71 9 -141 18 -155 20 -14 2 -52 6
-85 10 -33 3 -73 8 -90 10 -67 9 -260 30 -365 41 -30 3 -70 7 -88 9 -18 3 -60
7 -95 10 -34 3 -82 7 -107 10 -82 9 -144 15 -210 20 -36 3 -85 7 -110 10 -65
6 -250 21 -385 30 -38 2 -95 7 -125 9 -49 5 -135 10 -330 21 -36 2 -114 7
-175 10 -166 9 -233 13 -435 20 -102 4 -223 9 -270 11 -98 5 -1647 13 -1652 9z"/>
</g>
</svg>
