<?xml version="1.0" encoding="utf-8"?>
<!-- Generator: Adobe Illustrator 19.0.0, SVG Export Plug-In . SVG Version: 6.00 Build 0)  -->
<svg version="1.1" xmlns="http://www.w3.org/2000/svg" xmlns:xlink="http://www.w3.org/1999/xlink" x="0px" y="0px"
	 viewBox="0 0 381.5 781" style="enable-background:new 0 0 381.5 781;" xml:space="preserve">
<style type="text/css">
	.st0{fill:#747475;fill-opacity:0.4;}
	.st1{display:none;}
	.st2{display:inline;}
	.st3{fill:#A4A4A6;}
	.st4{fill:#FFFFFF;}
	.st5{fill:#373738;}
	.st6{fill:#979799;}
</style>
<g id="Layer_3">
	<path id="XMLID_1_" class="st0" d="M375.9,224.1c-1.8-1.4-3.9-2.6-6.3-3.6c-4.3-1.8-9.6-2.8-15.9-3.1c-0.4,0-6.8-0.3-6.8-0.3
		l1.4-4.9c1.4-4.7,2.7-10.7,4.4-20.6l0.1-0.5c0.3-2.7,7.8-83.3-4.1-137.7c-5.1-23.4-29.2-39.6-71.6-48.1c-24-4.9-47.9-5.4-57-5.4
		h-3.9c-9.3,0-33.6,0.5-57.8,5.4c-42.8,8.6-67,24.7-72.1,48.1C84.5,61.6,83,70.8,82,80.7c-5.6,51.8,0.1,110,0.2,110.5l0.1,0.6
		c0.3,1.4,2.1,11.7,4.6,22.1l1.1,4.7l-5.5,0.2c-6.1,0.3-11.2,1.3-15.4,3c-2.3,0.9-4.3,2.1-6,3.4c-4.3,3.3-6.1,9.7-4.4,14.7
		c1.4,4.1,5.1,6.8,9.4,6.9l15.6,0.8l0.3,0l0.2,0c1,0,1.9-0.1,2.8-0.2l4.6-0.5l-0.1,4.6c-0.6,33.7-3.8,202.9-3.3,218.8
		c0.5,17.5,3.4,24,4.6,25.9l0.6,0.9l0,1.1c1.1,29.6,1.2,54.6,0.2,59.5l-0.1,0.2l-0.1,0.2c-2,5.6-10.1,18.8-12.8,22.9l-0.9,1.4l0,1.7
		c0,0.7-2,67.6,0,92.7c1.7,21,6.4,33,8.4,37.2l0.3,0.6l0.1,0.7c0.3,3,1.3,12.2,2.8,31.5c0.5,6.4,1.8,11.7,3.8,15.8l0.4,0.8l0,4.5
		h2.7l1.1,1c3.1,2.8,6.6,4.6,10.2,5.1l1.6,0.3l1,1.3c2.2,2.9,5.2,4.8,9,5.7c1.2,0.3,3.7,0.5,26.3,0.5c15.6,0,38.9-0.1,65.9-0.4
		l0.1-0.2l2.2,0c-0.2,0-0.5,0.1-0.7,0.2l0.6,0l-2,1.1c-0.5,0.6-0.8,1.4-0.8,2.5l4.1,4v-8h0.4l0.3,0c4.1,0.6,20.5,0.6,32.4,0.6
		c6.2,0,12.6,0,19,0c6.1,0,12.1,0,17.5,0c22.8,0,25.1-0.2,26.3-0.5c3.7-0.9,6.8-2.8,9.2-5.7l1.2-1.4l1.8-0.1
		c6.3-0.2,11.4-2.9,15.2-8.1l0.4-0.5l0.2-0.6l0.3-0.5c2.8-4,4.3-9,4.8-16.4c0.7-9.3,1.8-22.3,2.9-31.5l0.1-0.6l0.3-0.6
		c2-4.2,6.8-16.3,8.4-37.2c2-24.6,0.1-89.8,0.1-92.5l0-1.7l-0.9-1.4c0,0-0.2-0.3-0.5-0.9c-0.1-0.1-0.4-0.7-0.4-0.7l-0.1-0.2
		l-0.2-0.2l-1.3-2c-7.3-11.9-9.6-17.1-10.3-19.1l-0.1-0.2l-0.1-0.3c-1-4.8-1-29.9,0.2-59.5l0-1.1l1.1-1.8c1.2-1.9,4.1-8.3,4.7-26
		c0.4-15.5-1.7-183.8-2.1-217.4l-0.1-4.7l4.7,0.7c0.6,0.1,1.1,0.3,1.4,0.5l1.3,0.2l0.2,0.3h0.7c0.3-0.1,0.7-0.2,1.2-0.3l0.3-0.1
		l14.7-1l0.2,0c5.1-0.1,9.1-3.1,10.8-8C382.7,234.9,380.6,227.9,375.9,224.1z"/>
</g>
<g id="Layer_2" class="st1">
	<g id="XMLID_3_" class="st2">
		<path id="XMLID_31_" class="st3" d="M154.7,785c0-1,0.3-1.8,0.8-2.5l2-1.1l-0.6,0c0.3-0.1,0.5-0.2,0.7-0.2l-2.2,0l-0.1,0.2
			c-27,0.3-50.4,0.4-65.9,0.4c-22.6,0-25.1-0.2-26.3-0.5c-3.8-0.9-6.8-2.8-9-5.7l-1-1.3l-1.6-0.3c-3.5-0.6-7.1-2.3-10.2-5.1l-1.1-1
			h-2.7l0-4.5l-0.4-0.8c-2-4.1-3.3-9.4-3.8-15.8c-1.5-19.3-2.4-28.5-2.8-31.5l-0.1-0.7l-0.3-0.6c-2-4.2-6.7-16.2-8.4-37.2
			c-2-25.1,0-92,0-92.7l0-1.7l0.9-1.4c2.7-4.2,10.8-17.3,12.8-22.9l0.1-0.2l0.1-0.2c1-4.8,1-29.8-0.2-59.5l0-1.1l-0.6-0.9
			c-1.2-2-4.1-8.4-4.6-25.9c-0.5-16,2.7-185.1,3.3-218.8l0.1-4.6l-4.6,0.5c-0.9,0.1-1.9,0.2-2.8,0.2l-0.2,0l-0.3,0L10.1,247
			c-4.3-0.1-8-2.8-9.4-6.9c-1.7-5,0.1-11.4,4.4-14.7c1.7-1.3,3.7-2.5,6-3.4c4.1-1.7,9.3-2.7,15.4-3l5.5-0.2l-1.1-4.7
			c-2.4-10.4-4.3-20.7-4.6-22.1l-0.1-0.6c-0.1-0.5-5.7-58.7-0.2-110.5c1.1-9.9,2.5-19.1,4.3-27.2c5.1-23.4,29.4-39.6,72.1-48.1
			C126.6,0.5,150.9,0,160.2,0h3.9c9.1,0,33,0.5,57,5.4c42.4,8.6,66.5,24.7,71.6,48.1c11.9,54.4,4.4,135.1,4.1,137.7l-0.1,0.5
			c-1.8,9.9-3.1,15.9-4.4,20.6l-1.4,4.9c0,0,6.3,0.2,6.8,0.3c6.2,0.3,11.6,1.3,15.9,3.1c2.4,1,4.6,2.2,6.3,3.6
			c4.7,3.7,6.9,10.8,4.9,16.4c-1.7,4.9-5.7,7.9-10.8,8l-0.2,0l-14.7,1l-0.3,0.1c-0.5,0.1-0.9,0.2-1.2,0.3H297l-0.2-0.3l-1.3-0.2
			c-0.4-0.2-0.8-0.4-1.4-0.5l-4.7-0.7l0.1,4.7c0.4,33.6,2.6,201.8,2.1,217.4c-0.5,17.7-3.4,24.1-4.7,26l-1.1,1.8l0,1.1
			c-1.1,29.6-1.2,54.6-0.2,59.5l0.1,0.3l0.1,0.2c0.7,2,3,7.2,10.3,19.1l1.3,2l0.2,0.2l0.1,0.2c0,0,0.3,0.5,0.4,0.7
			c0.3,0.5,0.5,0.8,0.5,0.9l0.9,1.4l0,1.7c0.1,2.8,1.9,67.9-0.1,92.5c-1.7,20.9-6.5,33-8.4,37.2l-0.3,0.6l-0.1,0.6
			c-1.1,9.2-2.2,22.2-2.9,31.5c-0.6,7.4-2.1,12.5-4.8,16.4l-0.3,0.5l-0.2,0.6l-0.4,0.5c-3.8,5.2-8.9,7.9-15.2,8.1l-1.8,0.1l-1.2,1.4
			c-2.5,2.9-5.6,4.8-9.2,5.7c-1.2,0.3-3.5,0.5-26.3,0.5c-5.4,0-11.4,0-17.5,0c-6.3,0-12.8,0-19,0c-11.9,0-28.3-0.1-32.4-0.6l-0.3,0
			h-0.4v8L154.7,785z"/>
		<g id="XMLID_2_">
			<path id="XMLID_38_" class="st4" d="M317.1,227.7c-1.5-1.2-3.3-2.2-5.4-3.1c-3.9-1.6-8.7-2.5-14.5-2.8c-4.4-0.2-8.9-0.2-12.4-0.2
				c0.4-1.1,0.7-2.1,1.1-3c2.3-6.6,3.6-10.3,6.7-27.2l0-0.2c0.1-0.8,7.9-82.1-4-136.6c-4.8-22-27.8-37.2-68.4-45.4
				c-29.5-6-58-5.8-58.4-5.8c-3.1,0-30.7,0.2-58.8,5.8c-41,8.2-64.2,23.5-69,45.4c-1.8,8.4-3.2,17.5-4.2,26.9
				c-5.5,50.9,0.1,109,0.2,109.8l0,0.2c0.3,1.9,3.3,18.3,6.7,30.6c-0.9-0.1-1.8-0.1-2.7-0.2c-0.4,0-0.8,0.1-1.1,0.4
				c-0.3,0.3-0.5,0.6-0.5,1c-0.9,0-1.8,0-2.7,0c-1.2,0-2.3,0-3.4,0.1c-5.6,0.3-10.3,1.2-14,2.7c-2,0.8-3.7,1.8-5,2.8
				c-3,2.3-4.3,6.8-3.1,10.3c0.9,2.6,3.1,4.2,5.8,4.2l15.7,0.8l0.1,0c1.4,0,8.6-0.5,11.2-3.9c0.1-0.2,0.3-0.4,0.4-0.6
				c0.4-0.3,0.8-0.5,1.2-0.6c-0.1,0.9-0.4,2.1-0.9,3.6c0,0.1,0,0.2-0.1,0.2c-0.1,0.2-0.1,0.4-0.1,0.6l0,0.7
				c-0.4,21.4-4,209.5-3.5,226.4c0.5,17.6,3.4,23,4,24l0.9,1.4c0.1,0.1,0.1,0.1,0.2,0.2c0.9,24,1.7,58.4,0,63.4
				c-2.4,7.2-13.2,23.9-13.3,24l-0.3,0.5l0,0.6c0,0.7-2,67.4,0,92.2c1.8,23,7.4,34.8,8.6,37c0.2,1.8,1.2,10.4,2.9,33
				c0.5,6.5,1.9,11.5,4.2,15.4l0,1.2h0.9c3.4,5,7.7,6.4,10.8,6.7c0.5,0,1,0.2,1.4,0.2c0.4,0,0.7,0,1,0c1,2.3,3.4,6,8.4,7.2
				c0.6,0.1,1.8,0.4,25.3,0.4c27.4,0,67.8-0.4,68.2-0.4c0.8,0,1.2,0,1.2,0c0.4,0,41.9,0.4,69.6,0.4c23.6,0,24.8-0.3,25.4-0.4
				c5.3-1.3,8-5.3,9.2-7.6c0.8,0.1,1.9,0.3,3.2,0.3c0.2,0,0.3,0,0.5,0c3.6-0.1,8.4-1.3,12.3-6.5l0.2-0.6v0c3-3.7,4.3-8.9,4.8-15.3
				c1.7-22.6,2.9-31.3,3.1-33c1.1-2.2,6.8-13.9,8.6-37c2-24.8,0.1-91.5,0-92.2l0-0.5l-0.3-0.5c0,0-0.2-0.3-0.5-0.8
				c-0.1-0.2-0.3-0.5-0.5-0.8l0-0.1l-0.1-0.1l-0.1-0.1c-0.1-0.1-0.1-0.2-0.2-0.3l-1.1-1.8c-5.7-9.3-9.6-16.5-10.8-20.1
				c-1.7-5-0.9-40,0-64.1c0.3-0.1,0.6-0.3,0.8-0.6l0.9-1.4c0.6-0.9,3.5-6.4,4-24c0.5-17-2.1-216.7-2.3-225.2l0-0.8
				c0-0.2-0.1-0.4-0.2-0.6c0-0.1,0-0.1-0.1-0.2c-0.6-1.5-0.8-2.7-0.9-3.6c0.3,0.1,0.6,0.3,1,0.5c0.1,0.2,0.2,0.3,0.3,0.5
				c2.9,3.9,10.2,4.3,12.3,4.4l0.1,0c0,0,0,0,0.1,0c0,0,0.1,0,0.1,0l15.7-0.9c3.4,0,6.1-2,7.2-5.2
				C322.2,235.5,320.6,230.5,317.1,227.7z"/>
			<path id="XMLID_37_" class="st5" d="M277.8,239.5l-0.3,0.2l0.3,0.7l-0.4,117.2h-12.2c-2.7,0-5-2.5-5.2-5.3
				c-0.6-10.9-1.8-38-0.7-52.8c1.5-18.7,6.4-32.3,6.5-32.5l12-41.8L277.8,239.5z"/>
			<path id="XMLID_35_" class="st5" d="M186,254.8c-0.3,0-0.6,0-1,0c-0.8,0-1.5,0-2.2,0c-0.3,0-0.6,0-0.9,0c-0.8,0-1.6,0-2.4,0
				c-0.3,0-0.5,1-0.8,1c-0.9,0-1.8,1-2.6,1h-7.6c-2.3,0-4.5-0.9-6.8-0.7c-38.3-1.9-85.5,4.3-92.6,5.3c-0.1-0.4-0.2-0.8-0.2-0.8
				l-0.3,0l-17.2-59.9c0.8-1.4,6.9-11.1,25.6-15.6c20.2-4.9,84-7.5,84.6-7.5c0.6,0,64.4,2.6,84.6,7.5c18.6,4.5,24.8,14.2,25.6,15.6
				l-17.2,59.8l-0.3-0.1c0,0-0.1,0.2-0.2,0.6c-0.2,0-0.5-0.1-0.8-0.1c-0.1,0-0.1,0-0.2,0c-0.2,0-0.5-0.1-0.7-0.1c-0.1,0-0.2,0-0.3,0
				c-0.3,0-0.5-0.1-0.8-0.1c-0.1,0-0.3,0-0.4-0.1c-0.2,0-0.4-0.1-0.6-0.1c-0.3,0-0.5-0.1-0.8-0.1c-0.2,0-0.4-0.1-0.6-0.1
				c-0.3,0-0.5-0.1-0.8-0.1c-0.3,0-0.6-0.1-0.9-0.1c-0.3,0-0.6-0.1-0.8-0.1c-0.1,0-0.2,0-0.3,0c-0.5-0.1-1-0.1-1.6-0.2
				c-0.1,0-0.3,0-0.4-0.1c-0.6-0.1-1.2-0.1-1.8-0.2c-0.1,0-0.2,0-0.3,0c-0.7-0.1-1.4-0.2-2.1-0.3c-0.1,0-0.1,0-0.2,0
				c-1.2-0.1-2.5-0.3-3.8-0.4c-0.1,0-0.2,0-0.4,0c-0.8-0.1-1.5-0.2-2.3-0.3c-0.1,0-0.3,0-0.4,0c-0.9-0.1-1.7-0.2-2.6-0.3
				c0,0-0.1,0-0.1,0c-1.5-0.2-2.9-0.3-4.5-0.5c-0.2,0-0.3,0-0.4,0c-0.8-0.1-1.7-0.2-2.6-0.3c-0.2,0-0.4,0-0.6-0.1
				c-0.8-0.1-1.7-0.2-2.5-0.2c-0.2,0-0.4,0-0.7-0.1c-1.6-0.1-3.2-0.3-4.8-0.4c-0.3,0-0.6,0-0.9-0.1c-0.8-0.1-1.6-0.1-2.4-0.2
				c-0.3,0-0.7,0-1-0.1c-0.7,0-1.5-0.1-2.2-0.2c-0.4,0-0.8-0.1-1.2-0.1c-0.5,0-1-0.1-1.5-0.1c-0.7,0-1.3-0.1-2-0.1
				c-0.5,0-0.9-0.1-1.4-0.1c-0.6,0-1.2-0.1-1.8-0.1c-0.5,0-1.1-0.1-1.6-0.1c-0.5,0-1.1-0.1-1.6-0.1c-0.5,0-1.1-0.1-1.6-0.1
				c-0.6,0-1.2,0-1.8-0.1c-0.4,0-0.8,0-1.2,0c-0.8,0-1.6-0.1-2.4-0.1c-0.4,0-0.8,0-1.1,0C187.6,254.8,186.8,254.8,186,254.8z"/>
			<path id="XMLID_29_" class="st3" d="M249.7,619.9c-0.5,14,0,46.5,0,46.5s-0.3,10,6.9,12.5s7.1,2.5,7.1,2.5l-1.3,85.5H262
				c0.3-0.6,0.4-1,0.4-1h-103l-98.7-2c0,0-0.3,1-0.3,3h-2.5l1-86.5c0,0,0,0,7.1-2.5s6.9-12.5,6.9-12.5s0.5-32.5,0-46.5
				s-6.9-13.5-6.9-13.5l-8.1-3.5l-1.2-99.6l104.7,1.1l105.3-1.4l-1.9,100.5l-8.1,3.5l-0.1,0c-0.1,0-1.3-0.1-2.7,1.2
				c-0.5,0.5-1.1,1.2-1.6,2.1C251,611.2,249.9,614.4,249.7,619.9z"/>
			<polygon id="XMLID_28_" class="st5" points="267.7,487.1 162.4,488.5 57.7,487.5 83.4,481.7 242.6,481.7 			"/>
			<path id="XMLID_23_" class="st5" d="M46.5,238.5l-0.1-14.2l12,41.8c0,0.1,4.9,13.7,6.5,32.4c1.2,14.7,1,32.1,0.8,44.9
				c0,3-0.1,5.7-0.1,8.2c0,1.1-0.9,2.1-2,2.2l-16.7,2.1l-0.4-116.8l0.3-0.3L46.5,238.5z"/>
			<path id="XMLID_22_" class="st5" d="M275.9,381.4l-14-2c0,0-4.8,1-4.7,8.8c0.2,11.8,0,70.2,0,70.2s-1.5,11.6,11.1,15
				c10.4,2.8,8.6-37,8.6-37L275.9,381.4z"/>
			<path id="XMLID_21_" class="st5" d="M35.4,239.2c-2.1,2.8-9.7,3.1-9.7,3.1l-15.7-0.8c-5.3,0-5.7-7.7-1.6-10.9
				c1.2-0.9,2.7-1.8,4.6-2.6c4-1.6,8.8-2.3,13.3-2.5c3-0.1,5.9-0.1,8.3,0.1C36.1,229.2,38.4,235.2,35.4,239.2z"/>
			<path id="XMLID_20_" class="st5" d="M288.2,239.2c2.1,2.8,9.7,3.1,9.7,3.1l15.7-0.8c5.3,0,5.7-7.7,1.6-10.9
				c-1.2-0.9-2.7-1.8-4.6-2.6c-4-1.6-8.8-2.3-13.3-2.5c-3-0.1-5.9-0.1-8.3,0.1C287.5,229.2,285.2,235.2,288.2,239.2z"/>
			<path id="XMLID_19_" class="st5" d="M56,474.4c-1.1,0.6-2.2,0.8-3.1,0.8c-0.9,0-3.7-0.3-4.5-0.8c-7.7-5.2-6.7-35.3-6.7-36.5
				v-57.4l17.6-1l1,0c0.2,0,5.8,1.2,5.7,9.3c-0.2,11.7,0.3,69.6,0.3,70.2C66.3,458.9,67.8,468.3,56,474.4z"/>
			<g id="XMLID_4_">
				<path id="XMLID_18_" class="st5" d="M165.5,47.3c0.6,0.2,1.3,0.4,2,0.7l0.2,0.1l0.1,0c3.5,1.3,7,2.9,10.3,4.8
					c1.3,0.7,2.6,1.5,3.9,2.4c1.4,0.9,2.8,1.9,4.2,3c1.4,1.1,2.8,2.2,4.1,3.4c1.3,1.2,2.5,2.4,3.7,3.5c1.4,1.4,2.7,2.9,3.9,4.4
					c0.9,1.1,1.8,2.2,2.6,3.4c4.6,6.5,7,14.1,7,22v25.7l-3.8,2.8l-0.4,0.3c-1.5,1.1-3.1,2.2-4.7,3.1c-1.2,0.7-2.3,1.4-3.5,2
					c-1.3,0.7-2.6,1.3-3.9,1.9c-1.2,0.6-2.5,1.1-3.7,1.6c-1.3,0.5-2.7,1-4.1,1.5c-1.4,0.4-2.8,0.8-4.2,1.2c-1.2,0.3-2.5,0.6-3.9,0.8
					c-3.5,0.7-7.1,1-10.6,1.2c-0.7,0-1.4,0-2.2,0c-0.6,0-1.2,0-1.7,0c-4.1-0.1-8.2-0.5-12.2-1.3c-1.3-0.3-2.6-0.6-3.9-0.9
					c-1.3-0.3-2.6-0.7-3.9-1.1c-3.7-1.2-7.3-2.7-10.8-4.5c-2.8-1.4-5.6-3.1-8.2-4.9l-4.4-3V95.4c0-8.4,2.4-15.9,7-22.4
					c0.8-1.2,1.7-2.3,2.6-3.4c1.1-1.4,2.4-2.8,3.6-4.1c3.4-3.5,7.1-6.7,11.2-9.5c1.3-0.9,2.6-1.7,3.9-2.5c3.9-2.3,8-4.2,12.3-5.7
					c0.4-0.1,0.9-0.3,1.3-0.4l3.2-1.1L165.5,47.3z"/>
				<path id="XMLID_5_" class="st4" d="M130.6,80.5c-2.4,4.2-3.7,8.9-3.7,13.8v21.6c1.2,0.8,2.4,1.6,3.7,2.4V80.5z M130.7,80.3
					c-2.5,4.2-3.8,9.1-3.8,14v21.6c1.2,0.9,2.5,1.7,3.8,2.4V80.3 M123.3,117.7V94.3c0-0.5,0-1.1,0-1.7c0,0,0,0,0-0.1
					c0-0.1,0-0.1,0-0.2c0.4-5.6,2.1-10.8,5.2-15.4l0,0c0.1-0.1,0.2-0.3,0.3-0.4c0.1-0.1,0.2-0.2,0.3-0.4l0.1-0.1l0.1-0.1l0.1-0.1
					l0.1-0.2c0.2-0.3,0.4-0.6,0.6-0.9c0.3-0.4,0.5-0.7,0.8-1c0.3-0.4,0.6-0.8,0.9-1.1c0,0,0,0,0-0.1c0,0,0,0,0,0
					c0.3-0.3,0.5-0.7,0.8-1c0.3-0.3,0.6-0.7,0.9-1.1l0.3-0.4c0,0,0.1,0,0.1,0c0,0,0,0,0,0c0.1,0,0.1,0.1,0.1,0.1V124
					c0,0,0,0.1-0.1,0.1c0,0,0,0-0.1,0c0,0,0,0-0.1,0l-0.3-0.1c-3.6-1.7-7.1-3.8-10.3-6.2l-0.1-0.1
					C123.3,117.7,123.3,117.7,123.3,117.7z M130.5,80.8v37.3c-1.2-0.7-2.4-1.5-3.5-2.3V94.3C127,89.5,128.2,84.9,130.5,80.8
					L130.5,80.8z M156.9,127.2v-24.9h0c-1-0.1-2.2,0.1-3,0H153c-0.1,0-0.1,0.1-0.1,0v-4.1c0,0,0,0,0,0c0,0,0.1,0,0.1,0c0,0,0,0,0,0
					h0.2c1.1,0.1,2.5-0.1,3.6,0h0.1V57.7c-2.2,1-4.4,2.1-6.6,3.3c0,0,0,0-0.1,0c0,0,0,0-0.1,0c0,0-0.1-0.1-0.1-0.1v-3.5
					c0,0,0-0.1,0.1-0.1c3.4-1.9,7-3.5,10.6-4.7c0,0,0,0,0,0c0,0,0.1,0,0.1,0c0,0,0.1,0.1,0.1,0.1v77.8c0,0,0,0.1,0,0.1
					c0,0-0.1,0-0.1,0c0,0,0,0,0,0c-3.6-0.1-7.1-0.5-10.6-1.1c-0.1,0-0.1-0.1-0.1-0.1v-3.1c0,0,0-0.1,0-0.1c0,0,0.1,0,0.1,0
					c0,0,0,0,0,0C152.4,126.7,154.7,127,156.9,127.2z M193.8,112.4v6.1c1.3-0.8,2.6-1.7,3.9-2.6l0.3-0.2v-8.7l0,0
					c-2-1.1-3.9-2.3-5.8-3.6c-0.5-0.4-1-0.7-1.6-1.1l-0.1-0.1c0,0-0.1-0.1-0.1-0.1V70.6c0-0.1,0-0.1,0.1-0.1c0,0,0,0,0,0
					c0,0,0.1,0,0.1,0l1.4,1.4c0.8,0.9,1.6,1.9,2.3,2.9c0.4,0.5,0.7,1,1.1,1.6c3.6,5.1,5.6,11.1,5.8,17.4l0,0.1c0,0,0,0.1-0.1,0.1
					l-0.1,0.1c-0.9,0.6-1.8,1.2-2.7,1.7l-0.2,0.1l0,0c0,0,0,0-0.1,0c0,0,0,0-0.1,0c0,0-0.1-0.1-0.1-0.1v-1.5
					c0-5.2-1.4-10.2-4.1-14.6l-0.1-0.1l0,0.2c0,0.3,0,0.6,0,1V100l0,0c1.4,1,2.9,1.9,4.4,2.8c0,0,0,0,0,0c1,0.6,1.9,1.1,2.9,1.6
					l0.1,0.1c0,0,0.1,0.1,0.1,0.1v12.7c0,0,0,0.1-0.1,0.1l-1.6,1.2c-2.8,2.1-5.9,3.9-9,5.5c0,0,0,0-0.1,0c0,0,0,0-0.1,0
					c0,0-0.1-0.1-0.1-0.1v-11.4c0-1,0-2,0.1-2.9l0-0.1c0,0,0-0.1,0.1-0.1l0.1,0c0.9-0.4,1.9-0.9,2.9-1.5l0.3-0.2c0,0,0,0,0.1,0
					c0,0,0.1,0,0.1,0c0,0,0.1,0.1,0.1,0.1l-0.1,0.4C193.9,109.6,193.8,111,193.8,112.4z M137.1,71.8V67c0,0,0-0.1,0-0.1
					c1.1-1,2.2-2.1,3.4-3c0,0,0,0,0.1,0l0.2-0.2c0.6-0.5,1.2-1,1.9-1.5c0,0,0,0,0,0c0,0,0,0,0.1,0c1.3-1,2.7-1.9,4-2.8
					c0,0,0,0,0.1,0s0,0,0.1,0c0,0,0.1,0.1,0.1,0.1v69.3c0,0,0,0.1-0.1,0.1c0,0-0.1,0-0.1,0c0,0,0,0,0,0c-1.1-0.3-2.3-0.6-3.4-0.9
					c-0.1,0-0.1-0.1-0.1-0.1V66.3l-0.1,0.1c-0.9,0.7-1.8,1.5-2.6,2.2c-1,0.9-2.1,1.9-3.1,3l-0.3,0.3c0,0-0.1,0-0.1,0c0,0,0,0,0,0
					C137.1,71.9,137.1,71.8,137.1,71.8z M163.6,56v-3.2c0,0,0-0.1,0.1-0.1c0,0,0.1,0,0.1,0c0,0,0,0,0,0c3.3,1.1,6.6,2.5,9.8,4.2
					c0,0,0.1,0.1,0.1,0.1v3.5c0,0,0,0.1-0.1,0.1c0,0,0,0-0.1,0c0,0,0,0,0,0l-0.3-0.1c-0.4-0.2-0.8-0.3-1.1-0.4l0,0
					c-0.4-0.1-0.7-0.3-1-0.4l-0.1,0v67.1c0.8-0.1,1.7-0.3,2.5-0.4c0,0,0,0,0,0c0,0,0.1,0,0.1,0c0,0,0,0.1,0,0.1v3.1
					c0,0.1,0,0.1-0.1,0.1c-1.4,0.3-2.8,0.5-4.3,0.6c-0.5,0-1,0.1-1.5,0.1c-1.1,0.1-2.2,0.2-3.3,0.2l-0.2,0c0,0,0,0,0,0
					c0,0-0.1,0-0.1,0c0,0,0-0.1,0-0.1v-3c0-0.1,0.1-0.1,0.1-0.1c0.9,0,1.9-0.1,2.8-0.2V57.6l-0.7-0.3l0,0c-0.7-0.3-1.2-0.5-1.9-0.8
					l0,0l0,0c-0.1-0.1-0.3-0.1-0.5-0.2l-0.1,0C163.7,56.1,163.6,56.1,163.6,56z M176.7,128V58.2c0,0.6,0,0.6,0.1,0.6c0,0,0,0,0.1,0
					c0,0,0,0,0.1,0c0.3,0.2,0.6,0.4,1,0.6c0,0,0,0,0,0c0.4,0.3,0.6,0.6,1,0.9l0.2,0.1c0.3,0.3,0.7,0.5,1.1,0.8l0.1,0.1
					c0,0,0.1,0.1,0.1,0.1v36.7h0c0.6,0.1,1.7-0.1,2.4,0h0h0h0.1c0.3,0,0.6,0,0.8,0h0.1V64c0-0.1,0-0.1,0.1-0.1c0,0,0,0,0.1,0
					c0,0,0.1,0,0.1,0c0.6,0.5,1.3,1.1,1.9,1.7c0,0,0,0,0,0l0,0c0,0,0,0.1,0.1,0.1l0.1,0.1c0.3,0.3,0.6,0.7,1,1l0.1,0.1
					c0,0,0,0.1,0-0.6v58.2c0,0.7,0,0.8-0.1,0.8l-0.1,0c-0.3,0.2-0.7,0.3-1,0.5l0,0l0,0c-0.6,0.3-1.1,0.6-1.8,0.8l-0.2,0.1
					c0,0,0,0,0,0c0,0-0.1,0-0.1,0c0,0-0.1-0.1-0.1-0.1v-24.4h0c-0.3,0-0.6,0-1,0h0c-0.8-0.1-1.9,0.1-2.4,0h-0.1v25.4
					c0,0.1,0,0.1-0.1,0.1l-0.8,0.2c-0.8,0.2-1.4,0.5-2.4,0.8l-0.2,0.1c0,0,0,0,0,0c0,0-0.1,0-0.1,0
					C176.7,128.8,176.7,128.7,176.7,128z"/>
			</g>
		</g>
		<path id="XMLID_67_" class="st6" d="M90.9,736.6c0,9.5,7.9,17.2,17.4,17.2s17.4-7.7,17.4-17.2v-204c0-9.5-7.9-17.2-17.4-17.2
			S91,523.1,91,532.6L90.9,736.6z"/>
		<path id="XMLID_66_" class="st6" d="M145.9,736.6c0,9.5,7.9,17.2,17.4,17.2c9.5,0,17.4-7.7,17.4-17.2v-204
			c0-9.5-7.9-17.2-17.4-17.2c-9.5,0-17.3,7.7-17.3,17.2L145.9,736.6z"/>
		<path id="XMLID_30_" class="st6" d="M200.9,736.6c0,9.5,7.9,17.2,17.4,17.2c9.5,0,17.4-7.7,17.4-17.2v-204
			c0-9.5-7.9-17.2-17.4-17.2c-9.5,0-17.3,7.7-17.3,17.2L200.9,736.6z"/>
	</g>
</g>
</svg>
