<svg width="2400" height="2400" viewBox="0 0 2400 2400" fill="none" xmlns="http://www.w3.org/2000/svg">
<path d="M1129.2 2189.1C1114.8 2184.4 1099.8 2179.2 1084.7 2173.8L1081.2 2172.5L1079.7 2171.9C1001.1 2143.1 924.1 2107.4 850.7 2065.7C821.8 2049.4 792.8 2031.6 764.5 2013C732.8 1992.2 701.3 1969.9 671.2 1946.8C639.7 1922.6 608.9 1897.1 579.6 1870.8C550.7 1844.9 523.2 1818.3 497.7 1791.8C467.6 1760.7 438.4 1727.7 411.1 1694.1C391.2 1669.6 371.9 1644.3 353.8 1619C251.2 1475.1 197 1305.3 197 1127.9V554.1L282.2 491L290.3 485.1C324 460.4 359.1 436.9 394.4 415.1C420.2 399.2 446.7 383.9 473.2 369.7C501.2 354.7 530.3 340.2 559.8 326.7C587.5 314.1 615.1 302.4 642 292C671.2 280.6 702.1 269.7 733.7 259.6C765 249.7 796.5 240.9 827.5 233.2C855.1 226.3 884 220 913.5 214.5C991.4 199.9 1071.2 191.3 1150.8 188.8C1166.2 188.3 1182.4 188 1200.2 188C1214.3 188 1226.2 188.2 1237.7 188.5C1328.7 190.6 1420.1 200.7 1509.2 218.5C1537.7 224.2 1566.7 230.8 1595.1 238.1C1624 245.6 1653.3 254 1682.1 263.2C1764.8 289.7 1845.9 323.4 1923.3 363.2C1985.8 395.2 2047.3 432.1 2106 472.8L2203.6 540.4V1118.6C2203.6 1304.8 2150.9 1472.9 2046.9 1618.5C2028.4 1644.4 2008.6 1670.3 1988.2 1695.4C1962.8 1726.6 1935.8 1757.1 1908.1 1786.3C1832.8 1865.2 1749 1936.3 1659 1997.7C1631.1 2016.7 1602.1 2035.2 1572.9 2052.4C1486 2103.7 1394.1 2146.5 1299.7 2179.5C1290.1 2182.8 1280.7 2186 1271.2 2189.1L1200.1 2212.6L1129.2 2189.1Z" fill="#3A4349"/>
<path d="M1907.8 1449.6C1961.2 1356.9 1989.4 1250.8 1989.4 1142.3V661.699C1962.9 643.399 1935.5 625.799 1907.8 609.299V1449.6ZM1906.2 1455.2C1961.6 1361 1990.8 1253.1 1990.8 1142.3V660.899C1963.4 641.899 1934.9 623.699 1906.2 606.699V1455.2ZM2070 621.599V1142.3C2070 1154.5 2069.7 1167.2 2069 1179.9C2069 1180.3 2069 1180.7 2068.9 1181.1C2068.8 1182.8 2068.7 1184.4 2068.6 1186C2059.6 1311.7 2020.8 1427 1953.4 1528.8L1953.1 1529.2C1951 1532.3 1948.9 1535.4 1946.8 1538.5C1944.9 1541.3 1943 1544 1940.9 1547L1939.4 1549.1L1937.9 1551.2L1936.1 1553.7L1932.9 1558.2C1928 1564.9 1923.2 1571.3 1918.6 1577.4C1912.1 1586 1906.6 1593 1901.5 1599.5C1894.8 1608.1 1887.9 1616.7 1880.9 1625.1C1880.6 1625.5 1880.3 1625.9 1879.9 1626.3C1879.6 1626.7 1879.3 1627 1879 1627.4C1873.1 1634.6 1866.9 1642 1860.1 1649.9C1853.4 1657.7 1846.5 1665.6 1839.5 1673.4L1832.4 1681.3C1831.8 1682 1831 1682.3 1830.1 1682.3C1829.7 1682.3 1829.4 1682.2 1829 1682.1C1827.8 1681.6 1827 1680.5 1827 1679.3V479.699C1827 478.699 1827.5 477.699 1828.4 477.099C1828.9 476.799 1829.5 476.599 1830 476.599C1830.4 476.599 1830.9 476.699 1831.3 476.899L1837.2 479.699C1917.4 518.499 1994.8 564.999 2067.1 617.899L2068.7 619.099C2069.6 619.699 2070 620.599 2070 621.599ZM1909.3 1443.8V611.999C1935.9 627.899 1962.3 644.799 1987.8 662.499V1142.4C1987.8 1248.5 1960.7 1352.5 1909.3 1443.8ZM1321.6 409.399V965.599H1322.6C1345.4 968.499 1370.7 964.099 1389.4 965.599H1408.1C1409.7 965.699 1411 963.999 1411 965.599V1056.1C1411 1056.9 1410.6 1055.5 1410 1056.1C1409.4 1056.6 1408.7 1056.1 1407.9 1056.1C1407.8 1056.1 1407.8 1056.1 1407.7 1056.1H1403.4C1378.3 1054.4 1347.8 1059.1 1322.8 1056.1H1321.5V1957.5C1371.4 1935.8 1420.5 1910.7 1467.7 1882.9C1468.2 1882.6 1468.7 1882.5 1469.3 1882.5C1469.8 1882.5 1470.3 1882.6 1470.8 1882.9C1471.8 1883.4 1472.3 1884.5 1472.3 1885.5V1963.8C1472.3 1964.9 1471.7 1965.9 1470.7 1966.5C1394.8 2008.5 1315 2043.5 1233.3 2070.5C1233 2070.6 1232.7 2070.7 1232.3 2070.7C1231.7 2070.7 1231 2070.5 1230.5 2070.1C1229.7 2069.5 1229.2 2068.6 1229.2 2067.6V333.299C1229.2 332.499 1229.5 331.699 1230.1 331.099C1230.7 330.499 1231.4 330.199 1232.2 330.199C1232.2 330.199 1232.2 330.199 1232.3 330.199C1311.6 331.899 1391.5 340.299 1469.7 355.099C1471.1 355.399 1472.2 356.599 1472.2 358.099V427.499C1472.2 428.399 1471.8 429.299 1471.1 429.899C1470.5 430.399 1469.9 430.599 1469.2 430.599C1469 430.599 1468.8 430.599 1468.6 430.499C1420.7 420.899 1371.3 413.799 1321.6 409.399ZM498.3 739.399V603.299C469.2 621.399 440.2 640.899 412.2 661.399L405.1 666.499V861.499L405.7 861.799C449.5 885.699 492.9 912.399 534.9 941.299C546.8 949.499 558.2 957.499 569.8 965.999L571.4 967.199C572.2 967.799 572.6 968.699 572.6 969.599V1670.5C572.6 1671.7 571.8 1672.9 570.7 1673.3C570.3 1673.4 569.9 1673.5 569.6 1673.5C568.8 1673.5 568 1673.2 567.4 1672.6L536.8 1640.7C519.2 1620 501.9 1598.5 485.5 1576.9C477.6 1566.6 469.2 1555.2 459.9 1542.3C379 1428.9 334.5 1294.9 331.1 1154.7L331 1152.5C331 1151.5 331.5 1150.5 332.3 1149.9L334.1 1148.6C354.1 1134.9 374.3 1121.8 394.2 1109.6L399.4 1106.4L400.4 1105.8C400.9 1105.5 401.5 1105.3 402 1105.3C402.5 1105.3 403 1105.4 403.5 1105.7C404.5 1106.2 405.1 1107.3 405.1 1108.4V1140.8C405.1 1256 436.5 1368.3 495.8 1465.6L497.8 1468.8L497.9 1465.1C498.1 1458.2 498.3 1451.2 498.3 1443.2V1015.2L497.8 1014.9C465.9 992.799 432.9 971.799 399.6 952.599C399.5 952.599 399.2 952.399 399.2 952.299C377.9 939.999 356.2 928.199 334.7 917.199L332.5 915.999C331.5 915.499 330.9 914.399 330.9 913.299V630.799C330.9 629.799 331.4 628.899 332.1 628.299L368.5 601.599C431.9 555.199 499.1 513.999 568.3 479.099C568.7 478.899 569.2 478.799 569.7 478.799C570.3 478.799 570.8 478.999 571.3 479.299C572.2 479.899 572.7 480.799 572.7 481.899V735.699C572.7 757.599 571.7 779.299 569.8 800.299L569.6 802.599C569.5 803.699 568.9 804.599 567.9 805.099L565.8 806.099C545.4 815.999 523.9 826.999 502.1 838.899L495 842.799C494.5 843.099 494 843.199 493.5 843.199C492.9 843.199 492.3 842.999 491.8 842.699C490.8 841.999 490.4 840.899 490.5 839.799L491.7 831.699C496.1 801.299 498.3 770.299 498.3 739.399ZM1763.6 1644.7V1750.3C1763.6 1751.1 1763.3 1751.9 1762.7 1752.5C1738.3 1775.7 1712.7 1798.3 1686.5 1819.9C1686.1 1820.2 1685.6 1820.4 1685.2 1820.5L1679.7 1825C1666 1836.3 1651.9 1847.5 1637.7 1858.2C1637.3 1858.5 1637 1858.7 1636.6 1859C1636.2 1859.3 1635.8 1859.6 1635.4 1859.9C1606.4 1881.6 1576.2 1902.5 1545.7 1921.9C1545.2 1922.2 1544.6 1922.4 1544.1 1922.4C1543.6 1922.4 1543.1 1922.3 1542.6 1922C1541.6 1921.5 1541 1920.4 1541 1919.3V374.499C1541 373.599 1541.4 372.699 1542.2 372.099C1542.7 371.699 1543.4 371.399 1544.1 371.399C1544.3 371.399 1544.6 371.399 1544.8 371.499C1569.6 377.499 1595.1 384.499 1620.8 392.299C1622.1 392.699 1623 393.899 1623 395.199V1766.9L1624.8 1765.4C1644.8 1749.2 1664.3 1732.5 1682.7 1715.8C1706 1694.8 1729.1 1672.6 1751.3 1649.7L1758.3 1642.5C1758.9 1641.9 1759.7 1641.6 1760.5 1641.6C1760.9 1641.6 1761.3 1641.7 1761.6 1641.8C1762.8 1642.4 1763.6 1643.5 1763.6 1644.7ZM1171.4 1996.3V2067.7C1171.4 2068.7 1170.9 2069.6 1170.1 2070.2C1169.6 2070.6 1168.9 2070.8 1168.3 2070.8C1168 2070.8 1167.7 2070.7 1167.3 2070.6C1092.9 2046 1019.7 2014.7 949.9 1977.5C948.9 1977 948.3 1975.9 948.3 1974.8V1896.4C948.3 1895.4 948.8 1894.4 949.6 1893.9C950.1 1893.6 950.7 1893.4 951.3 1893.4C951.7 1893.4 952.1 1893.5 952.4 1893.6L958 1895.9C966.3 1899.3 975.3 1902.6 983.2 1905.6L984.1 1906C993.1 1909.3 999.8 1911.9 1005.7 1914.3L1007.2 1914.9V417.799C988.4 420.499 969.8 423.599 951.7 426.899C951.5 426.899 951.3 426.999 951.1 426.999C950.4 426.999 949.7 426.799 949.2 426.299C948.5 425.699 948.1 424.899 948.1 423.999V354.799C948.1 353.299 949.2 352.099 950.6 351.799C981.8 346.199 1013.9 341.699 1045.9 338.199C1056.8 337.099 1067.9 336.099 1078.9 335.099C1103.9 332.999 1128.8 331.599 1153 330.899L1157.2 330.799C1157.2 330.799 1157.2 330.799 1157.3 330.799C1158.1 330.799 1158.9 331.099 1159.4 331.699C1160 332.299 1160.3 333.099 1160.3 333.899V401.799C1160.3 403.399 1159 404.799 1157.3 404.799C1136.9 405.399 1115.8 406.599 1094.3 408.299V1961.3L1110.1 1968.5L1110.8 1968.8C1125.7 1975.6 1137.5 1981 1152.9 1987.2L1153.6 1987.5L1154.4 1987.8C1157.7 1989.1 1161.3 1990.5 1166.5 1992.5L1169.1 1993.5C1170.7 1993.9 1171.4 1995 1171.4 1996.3ZM879.8 390.699V1947.3C879.8 1933.2 879.2 1934.2 878.2 1934.7C877.7 1935 877.2 1935.1 876.7 1935.1C876.1 1935.1 875.6 1935 875.1 1934.7C868.1 1930.4 860.9 1925.9 852.9 1920.7C852.6 1920.5 852.3 1920.3 852.1 1920.1C842.6 1913.3 838.7 1906.4 829.1 1899.1L824.9 1895.9C817.3 1890 809.1 1883.7 800.4 1877.2L798.8 1876C798 1875.4 797.6 1874.5 797.6 1873.6V1056.2H796.7C783.5 1054.5 759.2 1057.4 742.3 1056.2H741.2H740.2H738.2C731.3 1055.7 725.1 1056.6 720 1056.2H718.8V1817.3C718.8 1818.5 718.1 1819.6 717.1 1820.1C716.7 1820.3 716.2 1820.4 715.8 1820.4C715.1 1820.4 714.4 1820.2 713.9 1819.7C699.5 1807.9 685 1795.4 670.7 1782.6C670.5 1782.5 670.3 1782.3 670.1 1782.1L669.4 1781.3C668.9 1780.7 668.4 1780.1 667.8 1779.5L665.8 1777.2C658.9 1769.6 651.8 1761.7 644 1753.8L642.8 1752.6C642.3 1752 642 1751.3 642 1765.7V469.099C642 452.699 642.7 451.599 643.8 451.099L646.1 449.999C653.8 446.399 660.9 442.899 667.8 439.399L668.3 439.099L669.3 438.599C682.1 432.199 694.2 426.199 709.3 420.399L714.8 418.299C715.2 418.199 715.5 418.099 715.9 418.099C716.5 418.099 717.1 418.299 717.6 418.599C718.4 419.199 718.9 420.099 718.9 421.099V965.599H719.9C726 966.099 733.8 964.999 742.2 965.599H742.8C759.8 966.799 784.1 964.099 796.4 965.599H797.6V399.399C797.6 398.099 798.5 396.899 799.7 396.499L817.3 390.999C834.7 385.499 849.4 379.199 870.9 373.799L876 372.599C876.2 372.499 876.5 372.499 876.7 372.499C877.4 372.499 878 372.699 878.6 373.199C879.3 373.699 879.8 374.599 879.8 390.699Z" fill="white"/>
</svg>
