<svg width="4000" height="4000" viewBox="0 0 4000 4000" fill="none" 
xmlns="http://www.w3.org/2000/svg">
<g id="SHIELD">
<g id="LOGO">
<g id="BACKGROUND">
<path id="Vector" d="M2000 3637.55C1471.71 3469.27 1018.41 3132.84 702.943 2691.23C554.808 2483.87 476.26 2234.81 476.26 1979.98V866.326C900.838 547.877 1428.37 359.196 2000 359.196C2571.63 359.196 3099.16 547.877 3523.74 866.326V1979.98C3523.74 2234.81 3445.19 2483.87 3297.06 2691.23C2981.59 3132.9 2528.29 3469.27 2000 3637.55Z" fill="#373639"/>
</g>
<path id="BORDER" d="M2000 308.42C2565.6 308.42 3103.04 487.314 3554.24 825.718L3574.58 840.97V1980.04C3574.58 2248.41 3492.92 2504.58 3338.43 2720.84C3177.2 2946.51 2982.1 3144.02 2758.41 3307.92C2531.91 3473.91 2281.91 3601.14 2015.44 3686.04L2000 3690.94L1984.56 3686.04C1718.09 3601.14 1468.15 3473.91 1241.59 3307.92C1017.9 3143.96 822.735 2946.45 661.572 2720.84C507.082 2504.58 425.42 2248.41 425.42 1980.04V840.97L445.756 825.718C896.962 487.314 1434.4 308.42 2000 308.42ZM2000 283C1428.88 283 886.158 463.61 430.504 805.382L410.168 820.633L400 828.26V840.97V1980.04C400 2253.75 483.314 2515.01 640.918 2735.59C803.67 2963.42 1000.74 3162.9 1226.6 3328.38C1455.31 3496.03 1707.73 3624.46 1976.87 3710.19L1992.31 3715.09L2000 3717.56L2007.69 3715.09L2023.13 3710.19C2292.2 3624.46 2544.69 3495.97 2773.4 3328.38C2999.26 3162.84 3196.33 2963.42 3359.08 2735.59C3516.69 2515.01 3600 2253.69 3600 1980.04V840.97V828.26L3589.83 820.633L3569.5 805.382C3113.84 463.673 2571.12 283 2000 283Z" fill="#373639"/>
<g id="LETTERS">
<g id="S">
<path id="Vector_2" d="M1084.12 2847.63C1004.3 2764.76 930.389 2675.98 864.297 2583.32C740.183 2409.58 674.536 2203.48 674.536 1987.35V1894.88L824.514 1959.13V1987.35C824.514 2141.27 864.297 2291.94 939.54 2423.18L953.775 2448.02V1822.31L835.127 1771.47L674.536 1702.71V975.378C803.543 886.599 941.256 810.847 1084.12 750.029V1528.58L953.775 1472.78V979.572L942.463 985.8C904.142 1006.96 865.631 1029.84 828.073 1053.67L824.514 1055.9V1609.67L943.162 1660.45L1084.12 1720.88V2847.63Z" fill="white"/>
</g>
<g id="H">
<g id="Group">
<path id="Vector_3" d="M1262.63 3016.54C1215.73 2976.95 1169.4 2934.63 1124.85 2890.46V734.841C1170.54 716.411 1216.81 699.38 1262.63 684.192V1654.73H1373.4L1350.45 1794.79H1262.56V3016.54H1262.63Z" fill="white"/>
</g>
<g id="Group_2">
<path id="Vector_4" d="M1538.24 3216.73C1488.49 3185.84 1439.23 3152.67 1391.76 3117.9V645.617C1440.31 632.653 1489.5 621.214 1538.24 611.618V3216.73Z" fill="white"/>
</g>
</g>
<g id="I">
<path id="Vector_5" d="M1979.66 3430.19C1840.74 3380.24 1706.02 3316.75 1578.92 3241.38V3074.75C1616.41 3096.81 1654.41 3117.78 1691.97 3137.22L1703.09 3142.94V732.744L1694.52 733.825C1655.56 738.781 1616.73 744.755 1578.92 751.491V603.991C1709.89 580.351 1844.68 567.768 1979.66 566.624V714.505C1940.39 714.823 1900.1 716.221 1859.75 718.509L1852.56 718.89V3212.47L1857.2 3214.44C1896.79 3231.15 1937.98 3247.1 1979.66 3261.97V3430.19Z" fill="white"/>
</g>
<g id="E">
<path id="Vector_6" d="M2020.34 566.688C2157.41 567.831 2294.3 580.796 2427.44 605.199V768.459C2377.68 759.435 2328.11 752 2280.07 746.344C2241.81 741.832 2203.36 738.273 2165.74 735.667L2157.6 735.095V1654.73H2301.61L2278.67 1794.79H2157.6V3221.81L2168.28 3217.17C2191.67 3207 2214.61 3196.52 2236.53 3186.09C2300.46 3155.78 2364.65 3121.65 2427.44 3084.48V3237.57C2298.37 3314.66 2161.48 3379.41 2020.34 3430.13V566.688Z" fill="white"/>
</g>
<g id="L">
<path id="Vector_7" d="M2468.11 612.952C2513.67 622.103 2558.67 632.526 2602.01 644.028V2951.21L2620.12 2938.12C2707.18 2874.32 2790.75 2803.71 2868.79 2728.03V2897.39C2788.21 2976.51 2701.53 3050.22 2611.16 3116.44L2605.19 3120.77C2561.46 3152.6 2515.39 3183.68 2468.11 3213.29V612.952Z" fill="white"/>
</g>
<g id="D">
<path id="Vector_8" d="M2909.53 750.157C3054.68 811.355 3194.55 887.997 3325.46 978.111V1990.08C3325.46 2206.22 3259.88 2412.31 3135.7 2586.05C3067.64 2681.32 2991.63 2772.45 2909.53 2857.03V750.157ZM3047.56 2448.72L3061.79 2423.68C3136.15 2293.09 3175.48 2143.17 3175.48 1990.08V1058.63L3171.93 1056.4C3135 1032.95 3097 1010.39 3058.87 989.296L3047.56 983.004V2448.72Z" fill="white"/>
</g>
</g>
</g>
</g>
</svg>
